<?xml version="1.0" standalone="no"?>
<!DOCTYPE svg PUBLIC "-//W3C//DTD SVG 20010904//EN"
 "http://www.w3.org/TR/2001/REC-SVG-20010904/DTD/svg10.dtd">
<svg version="1.0" xmlns="http://www.w3.org/2000/svg"
 width="1851.000000pt" height="1019.000000pt" viewBox="0 0 1851.000000 1019.000000"
 preserveAspectRatio="xMidYMid meet">

<g transform="translate(0.000000,1019.000000) scale(0.100000,-0.100000)"
fill="#000000" stroke="none">
<path d="M1880 9360 l0 -770 -690 0 -690 0 0 -255 0 -255 690 0 690 0 0 -3195
0 -3195 260 0 260 0 0 3195 0 3195 690 0 690 0 0 255 0 255 -690 0 -690 0 0
770 0 770 -260 0 -260 0 0 -770z"/>
<path d="M70 2710 l0 -2590 2070 0 2070 0 0 2590 0 2590 -645 0 -645 0 0 -255
0 -255 388 -2 387 -3 0 -2075 0 -2075 -1555 0 -1555 0 0 2075 0 2075 388 3
387 2 0 255 0 255 -645 0 -645 0 0 -2590z"/>
<path d="M6990 2670 l0 -2610 545 0 545 0 0 2610 0 2610 -545 0 -545 0 0
-2610z"/>
<path d="M8440 5241 c0 -32 27 -82 180 -325 l180 -287 0 -2285 0 -2284 545 0
545 0 2 1505 3 1506 1060 -1505 1060 -1505 548 -1 547 0 0 2610 0 2610 -545 0
-545 0 0 -1656 c0 -910 -3 -1653 -7 -1651 -5 3 -519 748 -1143 1656 l-1135
1650 -647 1 -648 0 0 -39z"/>
<path d="M15272 5253 c-5 -16 -440 -1189 -966 -2607 -526 -1418 -956 -2581
-956 -2583 0 -2 275 -2 611 -1 l611 3 169 480 c93 264 181 513 195 553 l26 72
933 0 933 0 26 -72 c14 -40 102 -289 195 -553 l168 -480 612 -3 c336 -1 611
-1 611 1 0 3 -1783 4818 -1887 5095 l-46 122 -612 0 -613 0 -10 -27z m917
-2222 c155 -436 281 -795 281 -797 0 -2 -256 -4 -570 -4 -313 0 -570 3 -570 7
0 23 566 1601 571 1595 4 -4 134 -364 288 -801z"/>
</g>
</svg>
